<svg width="48" height="48" viewBox="0 0 48 48" fill="none" xmlns="http://www.w3.org/2000/svg">
<g filter="url(#filter0_i_1934_2630)">
<path d="M24 48C37.2548 48 48 37.2548 48 24C48 10.7452 37.2548 0 24 0C10.7452 0 0 10.7452 0 24C0 37.2548 10.7452 48 24 48Z" fill="#FFE019"/>
</g>
<g opacity="0.8" filter="url(#filter1_di_1934_2630)">
<path d="M6.26892 21.8765C6.68901 26.6781 10.5571 30.262 14.9085 29.8813C19.26 29.5006 22.447 25.2995 22.0269 20.4979C21.6068 15.6963 19.6724 18.4918 13.3773 14.5576C8.65603 11.0164 5.84883 17.075 6.26892 21.8765Z" fill="#F2F2F7"/>
</g>
<g opacity="0.8" filter="url(#filter2_di_1934_2630)">
<path d="M41.6985 21.8765C41.2784 26.6781 37.4103 30.262 33.0588 29.8813C28.7074 29.5006 25.5204 25.2995 25.9405 20.4979C26.3606 15.6963 28.295 18.4918 34.5901 14.5576C39.3113 11.0164 42.1186 17.075 41.6985 21.8765Z" fill="#F2F2F7"/>
</g>
<g filter="url(#filter3_d_1934_2630)">
<path d="M30.2951 25.1803C31.8162 25.1803 33.0492 23.4188 33.0492 21.2459C33.0492 19.073 31.8162 17.3115 30.2951 17.3115C28.7741 17.3115 27.541 19.073 27.541 21.2459C27.541 23.4188 28.7741 25.1803 30.2951 25.1803Z" fill="#202740"/>
</g>
<g filter="url(#filter4_d_1934_2630)">
<path d="M16.8856 25.1803C15.3645 25.1803 14.1315 23.4188 14.1315 21.2459C14.1315 19.073 15.3645 17.3115 16.8856 17.3115C18.4066 17.3115 19.6396 19.073 19.6396 21.2459C19.6396 23.4188 18.4066 25.1803 16.8856 25.1803Z" fill="#202740"/>
</g>
<g filter="url(#filter5_i_1934_2630)">
<path d="M24.1265 33.0492C19.327 33.0492 14.9512 38.1227 14.9512 40.058C14.9512 41.9933 19.327 40.0576 24.1265 40.0576C28.926 40.0576 33.0495 41.5452 33.0495 39.6099C33.0495 37.6745 28.926 33.0492 24.1265 33.0492Z" fill="#EDACAD"/>
</g>
<mask id="mask0_1934_2630" style="mask-type:alpha" maskUnits="userSpaceOnUse" x="0" y="0" width="48" height="48">
<circle cx="24" cy="24" r="24" fill="#D9D9D9"/>
</mask>
<g mask="url(#mask0_1934_2630)">
<g style="mix-blend-mode:lighten" filter="url(#filter6_f_1934_2630)">
<ellipse cx="0.929633" cy="5.86225" rx="21.3333" ry="15.1111" transform="rotate(-57.8599 0.929633 5.86225)" fill="url(#paint0_linear_1934_2630)" fill-opacity="0.8"/>
</g>
<g filter="url(#filter7_f_1934_2630)">
<path d="M12.0445 43.463C36.2222 42.752 49.0545 23.3149 44.0443 4.94449C41.3776 -4.83327 65.0527 -8.24671 55.3035 14.426C29.8222 73.6852 9.97018 43.524 12.0445 43.463Z" fill="white" fill-opacity="0.65"/>
</g>
<g filter="url(#filter8_f_1934_2630)">
<circle cx="22.7105" cy="48.7963" r="6.22222" fill="#F2F2F7"/>
</g>
<g filter="url(#filter9_f_1934_2630)">
<path d="M6.30371 24.159C6.30387 18.8558 11.3801 16.896 13.5066 16.5534C16.9068 16.0056 18.0345 19.8423 12.6838 20.2534C6.30388 20.8701 6.30354 29.7091 6.30371 24.159Z" fill="url(#paint1_linear_1934_2630)"/>
</g>
<g filter="url(#filter10_f_1934_2630)">
<path d="M6 13.659C6.00016 8.35582 11.0763 6.39601 13.2029 6.05341C16.6031 5.50564 17.7308 9.34232 12.38 9.75345C6.00017 10.3701 5.99983 19.2091 6 13.659Z" fill="url(#paint2_linear_1934_2630)"/>
</g>
<g filter="url(#filter11_f_1934_2630)">
<path d="M39.377 12.3225C39.3768 17.6257 34.3006 19.5855 32.174 19.9281C28.7738 20.4759 27.6462 16.6392 32.9969 16.2281C39.3768 15.6114 39.3771 6.77241 39.377 12.3225Z" fill="url(#paint3_linear_1934_2630)"/>
</g>
</g>
<defs>
<filter id="filter0_i_1934_2630" x="-3" y="-3" width="51" height="51" filterUnits="userSpaceOnUse" color-interpolation-filters="sRGB">
<feFlood flood-opacity="0" result="BackgroundImageFix"/>
<feBlend mode="normal" in="SourceGraphic" in2="BackgroundImageFix" result="shape"/>
<feColorMatrix in="SourceAlpha" type="matrix" values="0 0 0 0 0 0 0 0 0 0 0 0 0 0 0 0 0 0 127 0" result="hardAlpha"/>
<feOffset dx="-5" dy="-5"/>
<feGaussianBlur stdDeviation="1.5"/>
<feComposite in2="hardAlpha" operator="arithmetic" k2="-1" k3="1"/>
<feColorMatrix type="matrix" values="0 0 0 0 1 0 0 0 0 0.6 0 0 0 0 0 0 0 0 0.5 0"/>
<feBlend mode="normal" in2="shape" result="effect1_innerShadow_1934_2630"/>
</filter>
<filter id="filter1_di_1934_2630" x="5.22754" y="11.4962" width="17.8369" height="22.4128" filterUnits="userSpaceOnUse" color-interpolation-filters="sRGB">
<feFlood flood-opacity="0" result="BackgroundImageFix"/>
<feColorMatrix in="SourceAlpha" type="matrix" values="0 0 0 0 0 0 0 0 0 0 0 0 0 0 0 0 0 0 127 0" result="hardAlpha"/>
<feOffset dy="-1"/>
<feGaussianBlur stdDeviation="0.5"/>
<feComposite in2="hardAlpha" operator="out"/>
<feColorMatrix type="matrix" values="0 0 0 0 0 0 0 0 0 0 0 0 0 0 0 0 0 0 0.25 0"/>
<feBlend mode="normal" in2="BackgroundImageFix" result="effect1_dropShadow_1934_2630"/>
<feBlend mode="normal" in="SourceGraphic" in2="effect1_dropShadow_1934_2630" result="shape"/>
<feColorMatrix in="SourceAlpha" type="matrix" values="0 0 0 0 0 0 0 0 0 0 0 0 0 0 0 0 0 0 127 0" result="hardAlpha"/>
<feOffset dy="4"/>
<feGaussianBlur stdDeviation="2"/>
<feComposite in2="hardAlpha" operator="arithmetic" k2="-1" k3="1"/>
<feColorMatrix type="matrix" values="0 0 0 0 0.991667 0 0 0 0 0.210729 0 0 0 0 0.210729 0 0 0 0.35 0"/>
<feBlend mode="normal" in2="shape" result="effect2_innerShadow_1934_2630"/>
</filter>
<filter id="filter2_di_1934_2630" x="24.9033" y="11.4962" width="17.8369" height="22.4128" filterUnits="userSpaceOnUse" color-interpolation-filters="sRGB">
<feFlood flood-opacity="0" result="BackgroundImageFix"/>
<feColorMatrix in="SourceAlpha" type="matrix" values="0 0 0 0 0 0 0 0 0 0 0 0 0 0 0 0 0 0 127 0" result="hardAlpha"/>
<feOffset dy="-1"/>
<feGaussianBlur stdDeviation="0.5"/>
<feComposite in2="hardAlpha" operator="out"/>
<feColorMatrix type="matrix" values="0 0 0 0 0 0 0 0 0 0 0 0 0 0 0 0 0 0 0.25 0"/>
<feBlend mode="normal" in2="BackgroundImageFix" result="effect1_dropShadow_1934_2630"/>
<feBlend mode="normal" in="SourceGraphic" in2="effect1_dropShadow_1934_2630" result="shape"/>
<feColorMatrix in="SourceAlpha" type="matrix" values="0 0 0 0 0 0 0 0 0 0 0 0 0 0 0 0 0 0 127 0" result="hardAlpha"/>
<feOffset dy="4"/>
<feGaussianBlur stdDeviation="2"/>
<feComposite in2="hardAlpha" operator="arithmetic" k2="-1" k3="1"/>
<feColorMatrix type="matrix" values="0 0 0 0 0.991667 0 0 0 0 0.210729 0 0 0 0 0.210729 0 0 0 0.35 0"/>
<feBlend mode="normal" in2="shape" result="effect2_innerShadow_1934_2630"/>
</filter>
<filter id="filter3_d_1934_2630" x="26.541" y="17.3115" width="7.50781" height="9.86884" filterUnits="userSpaceOnUse" color-interpolation-filters="sRGB">
<feFlood flood-opacity="0" result="BackgroundImageFix"/>
<feColorMatrix in="SourceAlpha" type="matrix" values="0 0 0 0 0 0 0 0 0 0 0 0 0 0 0 0 0 0 127 0" result="hardAlpha"/>
<feOffset dy="1"/>
<feGaussianBlur stdDeviation="0.5"/>
<feComposite in2="hardAlpha" operator="out"/>
<feColorMatrix type="matrix" values="0 0 0 0 0 0 0 0 0 0 0 0 0 0 0 0 0 0 0.25 0"/>
<feBlend mode="normal" in2="BackgroundImageFix" result="effect1_dropShadow_1934_2630"/>
<feBlend mode="normal" in="SourceGraphic" in2="effect1_dropShadow_1934_2630" result="shape"/>
</filter>
<filter id="filter4_d_1934_2630" x="13.1318" y="17.3115" width="7.50781" height="9.86884" filterUnits="userSpaceOnUse" color-interpolation-filters="sRGB">
<feFlood flood-opacity="0" result="BackgroundImageFix"/>
<feColorMatrix in="SourceAlpha" type="matrix" values="0 0 0 0 0 0 0 0 0 0 0 0 0 0 0 0 0 0 127 0" result="hardAlpha"/>
<feOffset dy="1"/>
<feGaussianBlur stdDeviation="0.5"/>
<feComposite in2="hardAlpha" operator="out"/>
<feColorMatrix type="matrix" values="0 0 0 0 0 0 0 0 0 0 0 0 0 0 0 0 0 0 0.25 0"/>
<feBlend mode="normal" in2="BackgroundImageFix" result="effect1_dropShadow_1934_2630"/>
<feBlend mode="normal" in="SourceGraphic" in2="effect1_dropShadow_1934_2630" result="shape"/>
</filter>
<filter id="filter5_i_1934_2630" x="14.9512" y="33.0492" width="18.0986" height="8.86884" filterUnits="userSpaceOnUse" color-interpolation-filters="sRGB">
<feFlood flood-opacity="0" result="BackgroundImageFix"/>
<feBlend mode="normal" in="SourceGraphic" in2="BackgroundImageFix" result="shape"/>
<feColorMatrix in="SourceAlpha" type="matrix" values="0 0 0 0 0 0 0 0 0 0 0 0 0 0 0 0 0 0 127 0" result="hardAlpha"/>
<feOffset dy="1"/>
<feGaussianBlur stdDeviation="0.5"/>
<feComposite in2="hardAlpha" operator="arithmetic" k2="-1" k3="1"/>
<feColorMatrix type="matrix" values="0 0 0 0 0.991667 0 0 0 0 0.210729 0 0 0 0 0.210729 0 0 0 0.25 0"/>
<feBlend mode="normal" in2="shape" result="effect1_innerShadow_1934_2630"/>
</filter>
<filter id="filter6_f_1934_2630" x="-56.1738" y="-53.9147" width="114.207" height="119.554" filterUnits="userSpaceOnUse" color-interpolation-filters="sRGB">
<feFlood flood-opacity="0" result="BackgroundImageFix"/>
<feBlend mode="normal" in="SourceGraphic" in2="BackgroundImageFix" result="shape"/>
<feGaussianBlur stdDeviation="20" result="effect1_foregroundBlur_1934_2630"/>
</filter>
<filter id="filter7_f_1934_2630" x="-13.1045" y="-27.5922" width="95.7764" height="103.784" filterUnits="userSpaceOnUse" color-interpolation-filters="sRGB">
<feFlood flood-opacity="0" result="BackgroundImageFix"/>
<feBlend mode="normal" in="SourceGraphic" in2="BackgroundImageFix" result="shape"/>
<feGaussianBlur stdDeviation="12.5" result="effect1_foregroundBlur_1934_2630"/>
</filter>
<filter id="filter8_f_1934_2630" x="1.48828" y="27.574" width="42.4443" height="42.4445" filterUnits="userSpaceOnUse" color-interpolation-filters="sRGB">
<feFlood flood-opacity="0" result="BackgroundImageFix"/>
<feBlend mode="normal" in="SourceGraphic" in2="BackgroundImageFix" result="shape"/>
<feGaussianBlur stdDeviation="7.5" result="effect1_foregroundBlur_1934_2630"/>
</filter>
<filter id="filter9_f_1934_2630" x="5.30371" y="15.5" width="12.0742" height="11.4815" filterUnits="userSpaceOnUse" color-interpolation-filters="sRGB">
<feFlood flood-opacity="0" result="BackgroundImageFix"/>
<feBlend mode="normal" in="SourceGraphic" in2="BackgroundImageFix" result="shape"/>
<feGaussianBlur stdDeviation="0.5" result="effect1_foregroundBlur_1934_2630"/>
</filter>
<filter id="filter10_f_1934_2630" x="5" y="5" width="12.0742" height="11.4815" filterUnits="userSpaceOnUse" color-interpolation-filters="sRGB">
<feFlood flood-opacity="0" result="BackgroundImageFix"/>
<feBlend mode="normal" in="SourceGraphic" in2="BackgroundImageFix" result="shape"/>
<feGaussianBlur stdDeviation="0.5" result="effect1_foregroundBlur_1934_2630"/>
</filter>
<filter id="filter11_f_1934_2630" x="28.3027" y="9.5" width="12.0742" height="11.4815" filterUnits="userSpaceOnUse" color-interpolation-filters="sRGB">
<feFlood flood-opacity="0" result="BackgroundImageFix"/>
<feBlend mode="normal" in="SourceGraphic" in2="BackgroundImageFix" result="shape"/>
<feGaussianBlur stdDeviation="0.5" result="effect1_foregroundBlur_1934_2630"/>
</filter>
<linearGradient id="paint0_linear_1934_2630" x1="0.74677" y1="-0.516815" x2="0.929632" y2="20.9734" gradientUnits="userSpaceOnUse">
<stop offset="0.286458" stop-color="white" stop-opacity="0.92"/>
<stop offset="1" stop-color="white" stop-opacity="0.32"/>
</linearGradient>
<linearGradient id="paint1_linear_1934_2630" x1="14.6" y1="16.7963" x2="6.8963" y2="25.3889" gradientUnits="userSpaceOnUse">
<stop stop-color="white"/>
<stop offset="1" stop-color="white" stop-opacity="0"/>
</linearGradient>
<linearGradient id="paint2_linear_1934_2630" x1="14.2963" y1="6.2963" x2="6.59259" y2="14.8889" gradientUnits="userSpaceOnUse">
<stop stop-color="white"/>
<stop offset="1" stop-color="white" stop-opacity="0"/>
</linearGradient>
<linearGradient id="paint3_linear_1934_2630" x1="31.0807" y1="19.6852" x2="38.7844" y2="11.0926" gradientUnits="userSpaceOnUse">
<stop stop-color="white"/>
<stop offset="1" stop-color="white" stop-opacity="0"/>
</linearGradient>
</defs>
</svg>
