<svg width="29" height="29" viewBox="0 0 29 29" fill="none" xmlns="http://www.w3.org/2000/svg">
<path d="M9.64982 4C9.64982 3.39645 9.16054 2.90717 8.55698 2.90717C7.95343 2.90717 7.46415 3.39645 7.46415 4H8.55698H9.64982ZM7.46415 6.91422C7.46415 7.51777 7.95343 8.00705 8.55698 8.00705C9.16054 8.00705 9.64982 7.51777 9.64982 6.91422H8.55698H7.46415ZM21.3067 4C21.3067 3.39645 20.8174 2.90717 20.2138 2.90717C19.6103 2.90717 19.121 3.39645 19.121 4H20.2138H21.3067ZM19.121 6.91422C19.121 7.51777 19.6103 8.00705 20.2138 8.00705C20.8174 8.00705 21.3067 7.51777 21.3067 6.91422H20.2138H19.121ZM7.09988 14.564C6.49632 14.564 6.00705 15.0533 6.00705 15.6569C6.00705 16.2604 6.49632 16.7497 7.09988 16.7497V15.6569V14.564ZM7.82843 16.7497C8.43198 16.7497 8.92126 16.2604 8.92126 15.6569C8.92126 15.0533 8.43198 14.564 7.82843 14.564V15.6569V16.7497ZM11.4712 14.564C10.8676 14.564 10.3784 15.0533 10.3784 15.6569C10.3784 16.2604 10.8676 16.7497 11.4712 16.7497V15.6569V14.564ZM12.1998 16.7497C12.8033 16.7497 13.2926 16.2604 13.2926 15.6569C13.2926 15.0533 12.8033 14.564 12.1998 14.564V15.6569V16.7497ZM6.37132 5.45711V6.54994H22.3995V5.45711V4.36428H6.37132V5.45711ZM26.7708 9.82843H25.678V21.4853H26.7708H27.8637V9.82843H26.7708ZM22.3995 25.8566V24.7638H6.37132V25.8566V26.9494H22.3995V25.8566ZM2 21.4853H3.09283V9.82843H2H0.907169V21.4853H2ZM6.37132 25.8566V24.7638C4.56066 24.7638 3.09283 23.296 3.09283 21.4853H2H0.907169C0.907169 24.5031 3.35355 26.9494 6.37132 26.9494V25.8566ZM26.7708 21.4853H25.678C25.678 23.296 24.2102 24.7638 22.3995 24.7638V25.8566V26.9494C25.4173 26.9494 27.8637 24.5031 27.8637 21.4853H26.7708ZM22.3995 5.45711V6.54994C24.2102 6.54994 25.678 8.01777 25.678 9.82843H26.7708H27.8637C27.8637 6.81066 25.4173 4.36428 22.3995 4.36428V5.45711ZM6.37132 5.45711V4.36428C3.35355 4.36428 0.907169 6.81066 0.907169 9.82843H2H3.09283C3.09283 8.01777 4.56066 6.54994 6.37132 6.54994V5.45711ZM8.55698 4H7.46415V6.91422H8.55698H9.64982V4H8.55698ZM20.2138 4H19.121V6.91422H20.2138H21.3067V4H20.2138ZM7.09988 15.6569V16.7497H7.82843V15.6569V14.564H7.09988V15.6569ZM11.4712 15.6569V16.7497H12.1998V15.6569V14.564H11.4712V15.6569ZM2 11.2855V12.3784H26.7708V11.2855V10.1927H2V11.2855Z" fill="#F2F2F2"/>
</svg>
