<svg width="48" height="48" viewBox="0 0 48 48" fill="none" xmlns="http://www.w3.org/2000/svg">
<path d="M23.4857 17.6667C28.1323 17.6667 32.7788 17.6667 35.9437 17.6667C38.1529 17.6667 39.9618 15.7994 38.9747 13.8231C36.5662 9.00109 30.026 5.00006 23.4857 5.00006C16.9455 5.00006 10.4052 9.0011 7.99671 13.8231C7.00956 15.7994 8.81853 17.6667 11.0277 17.6667C14.1926 17.6667 18.8391 17.6667 23.4857 17.6667ZM23.4857 17.6667L23.4856 30.3335M17.3142 17.5613C17.3142 10.6833 20.077 5.10577 23.4856 5.10577C26.8943 5.10577 29.6571 10.6833 29.6571 17.5613M13.3851 36.6668L11.1428 43.0001M31.53 36.6668L33.7723 43.0001M9.16667 36.6667H30.8873C33.1131 36.6667 35.2793 35.9257 37.0587 34.5556L39.7956 32.217C41.0392 31.1543 41.2543 29.313 40.2891 27.9923C39.2143 26.5217 37.1154 26.2765 35.7306 27.4598L33.3559 29.4889C32.6441 30.0378 31.7781 30.3333 30.8873 30.3333H9.16666C7.41776 30.3333 6 31.7511 6 33.5C6 35.2489 7.41776 36.6667 9.16667 36.6667Z" stroke="#F2F2F2" stroke-width="2.62803" stroke-linecap="round" stroke-linejoin="round"/>
</svg>
