<svg width="48" height="48" viewBox="0 0 48 48" fill="none" xmlns="http://www.w3.org/2000/svg">
<path d="M40.2048 21.5738C40.6247 22.1021 40.8571 22.7884 40.8571 23.5C40.8571 24.2117 40.6247 24.898 40.2048 25.4263C37.5459 28.675 31.4937 35 24.4286 35C17.3635 35 11.3113 28.675 8.65242 25.4263C8.23246 24.898 8 24.2117 8 23.5C8 22.7884 8.23246 22.1021 8.65242 21.5738C11.3113 18.325 17.3635 12 24.4286 12C31.4937 12 37.5459 18.325 40.2048 21.5738Z" stroke="#F2F2F2" stroke-width="2.46429" stroke-linecap="round" stroke-linejoin="round"/>
<path d="M24.4294 28.6108C27.2265 28.6108 29.494 26.3225 29.494 23.4998C29.494 20.677 27.2265 18.3887 24.4294 18.3887C21.6323 18.3887 19.3648 20.677 19.3648 23.4998C19.3648 26.3225 21.6323 28.6108 24.4294 28.6108Z" stroke="#F2F2F2" stroke-width="2.46429" stroke-linecap="round" stroke-linejoin="round"/>
</svg>
