<svg width="65" height="65" viewBox="0 0 65 65" fill="none" xmlns="http://www.w3.org/2000/svg">
<path d="M19.2519 9.16877L18.6941 21.4396M24.8296 9.16877L25.3873 21.4396M42.3534 9.32383C46.6371 12.5053 52.6241 21.2767 53.2265 34.8226C53.289 36.2249 52.6063 37.5535 51.3324 38.1447C50.4232 38.5664 49.1939 39.046 47.6455 39.4543C47.3719 39.5231 47.1331 39.6901 46.9747 39.9236C46.8163 40.1571 46.7493 40.4408 46.7866 40.7205L48.1542 50.2895C48.5335 52.9478 47.4927 55.3295 44.9024 56.0423C42.4817 56.7094 39.8892 55.1008 39.8892 52.5886V10.8488C39.8892 9.41642 41.2033 8.47045 42.3534 9.32383ZM30.9036 11.7992C31.4168 14.8312 32.1352 20.1289 32.0772 25.7857C32.0482 28.7051 30.0982 31.321 27.0327 32.0082C26.3991 32.1498 25.7242 32.2781 25.0192 32.3774L27.0762 50.2036C27.3886 52.9166 25.7086 55.5771 23.0023 55.943C22.6837 55.9888 22.3626 56.0149 22.0407 56.0211C21.7697 56.0211 21.4406 55.9921 21.078 55.943C18.3729 55.5771 16.6929 52.9166 17.0063 50.2036L19.0623 32.3774C18.3868 32.2815 17.7155 32.1587 17.0499 32.0093C13.9833 31.321 12.0333 28.704 12.0032 25.7846C11.9463 20.1289 12.6625 14.8323 13.1756 11.8003C13.4366 10.2553 14.7887 9.16877 16.3549 9.16877H27.7244C29.2917 9.16877 30.6426 10.2542 30.9036 11.7992Z" stroke="#F2F2F7" stroke-width="2.3623" stroke-linecap="round" stroke-linejoin="round"/>
</svg>
