<svg width="24" height="24" viewBox="0 0 24 24" fill="none" xmlns="http://www.w3.org/2000/svg">
<path fill-rule="evenodd" clip-rule="evenodd" d="M9.77905 6.60269L10.3582 10.0868C10.574 11.3851 11.5887 12.4025 12.8836 12.6189L16.3588 13.1995C16.6147 13.2416 16.8151 13.4427 16.8572 13.6991C16.9113 14.0293 16.6881 14.3409 16.3588 14.3951L12.8836 14.9759C11.5887 15.1923 10.574 16.2097 10.3582 17.508L9.77905 20.992C9.73714 21.2487 9.53643 21.45 9.28035 21.492C8.95103 21.546 8.64033 21.3222 8.58639 20.992L8.00726 17.508C7.7914 16.2096 6.77657 15.1922 5.48153 14.9759L2.00643 14.3951C1.75061 14.353 1.55009 14.152 1.50808 13.8955C1.454 13.5653 1.67711 13.2537 2.00643 13.1995L5.48153 12.6189C6.77661 12.4026 7.79144 11.3851 8.00726 10.0868L8.58639 6.60269C8.62834 6.34596 8.82906 6.14473 9.08509 6.10271C9.41446 6.04868 9.72516 6.27252 9.77905 6.60269Z" stroke="#F2F2F2" stroke-width="1.4" stroke-linecap="round" stroke-linejoin="round"/>
<path d="M19.2457 4.49612L18.9561 2.75403C18.9291 2.58893 18.7738 2.477 18.6091 2.50403C18.4811 2.52504 18.3807 2.62566 18.3597 2.75403L18.0701 4.49612C17.9622 5.14532 17.4548 5.65408 16.8072 5.76227L15.0696 6.05254C14.905 6.07966 14.7934 6.23548 14.8204 6.40055C14.8414 6.5288 14.9417 6.62932 15.0696 6.65039L16.8072 6.94078C17.4548 7.04896 17.9622 7.55768 18.0701 8.20687L18.3597 9.94894C18.3867 10.114 18.5421 10.226 18.7067 10.199C18.8347 10.1779 18.9351 10.0773 18.9561 9.94894L19.2457 8.20687C19.3536 7.55772 19.8609 7.049 20.5084 6.94078L22.2461 6.65039C22.4108 6.62327 22.5223 6.46745 22.4953 6.30238C22.4742 6.17413 22.374 6.07361 22.2461 6.05254L20.5084 5.76227C19.8609 5.65401 19.3536 5.14528 19.2457 4.49612Z" stroke="#F2F2F2" stroke-width="1.4" stroke-linecap="round" stroke-linejoin="round"/>
</svg>
