<svg width="48" height="48" viewBox="0 0 48 48" fill="none" xmlns="http://www.w3.org/2000/svg">
<g filter="url(#filter0_i_1934_2569)">
<path d="M24 47.9999C37.2548 47.9999 48 37.2547 48 23.9999C48 10.745 37.2548 -0.00012207 24 -0.00012207C10.7452 -0.00012207 0 10.745 0 23.9999C0 37.2547 10.7452 47.9999 24 47.9999Z" fill="#FFE019"/>
</g>
<g filter="url(#filter1_di_1934_2569)">
<path d="M22.0832 14.333C22.5033 19.1347 18.9089 21.2585 14.5575 21.6392C10.2061 22.0199 6.74536 20.5133 6.32528 15.7117C5.90519 10.9101 9.09222 6.70903 13.4436 6.32833C17.7951 5.94763 21.6632 9.53147 22.0832 14.333Z" fill="#F2F2F7"/>
</g>
<g filter="url(#filter2_di_1934_2569)">
<path d="M25.7571 14.333C25.337 19.1347 28.9315 21.2585 33.2828 21.6392C37.6343 22.0199 41.095 20.5133 41.5151 15.7117C41.9352 10.9101 38.7482 6.70903 34.3967 6.32833C30.0453 5.94763 26.1772 9.53147 25.7571 14.333Z" fill="#F2F2F7"/>
</g>
<g filter="url(#filter3_i_1934_2569)">
<path d="M38.5574 24.3934C38.5574 26.2534 38.191 28.0952 37.4792 29.8137C36.7674 31.5322 35.7241 33.0936 34.4088 34.4088C33.0936 35.724 31.5322 36.7673 29.8137 37.4791C28.0953 38.1909 26.2535 38.5573 24.3934 38.5573C22.5334 38.5573 20.6916 38.1909 18.9731 37.4791C17.2546 36.7673 15.6932 35.724 14.378 34.4088C13.0628 33.0936 12.0195 31.5322 11.3077 29.8137C10.5959 28.0952 10.2295 26.2534 10.2295 24.3934H24.3934H38.5574Z" fill="#EDACAD"/>
</g>
<g filter="url(#filter4_di_1934_2569)">
<path d="M35.984 24.3934H12.8037C12.2514 24.3934 11.8037 24.8411 11.8037 25.3934V25.754C11.8037 26.3063 12.2514 26.754 12.8037 26.754H35.984C36.5363 26.754 36.984 26.3063 36.984 25.754V25.3934C36.984 24.8411 36.5363 24.3934 35.984 24.3934Z" fill="#F2F2F7"/>
</g>
<g filter="url(#filter5_d_1934_2569)">
<path d="M16.1311 18.0983C17.6521 18.0983 18.8851 16.3368 18.8851 14.1639C18.8851 11.9909 17.6521 10.2294 16.1311 10.2294C14.61 10.2294 13.377 11.9909 13.377 14.1639C13.377 16.3368 14.61 18.0983 16.1311 18.0983Z" fill="#202740"/>
</g>
<g filter="url(#filter6_d_1934_2569)">
<path d="M31.8693 18.0983C33.3904 18.0983 34.6234 16.3368 34.6234 14.1639C34.6234 11.9909 33.3904 10.2294 31.8693 10.2294C30.3483 10.2294 29.1152 11.9909 29.1152 14.1639C29.1152 16.3368 30.3483 18.0983 31.8693 18.0983Z" fill="#202740"/>
</g>
<mask id="mask0_1934_2569" style="mask-type:alpha" maskUnits="userSpaceOnUse" x="0" y="0" width="48" height="48">
<circle cx="24" cy="24" r="24" fill="#D9D9D9"/>
</mask>
<g mask="url(#mask0_1934_2569)">
<g style="mix-blend-mode:lighten" filter="url(#filter7_f_1934_2569)">
<ellipse cx="1.62592" cy="5.36225" rx="21.3333" ry="15.1111" transform="rotate(-57.8599 1.62592 5.36225)" fill="url(#paint0_linear_1934_2569)" fill-opacity="0.8"/>
</g>
<g filter="url(#filter8_f_1934_2569)">
<path d="M12.7407 42.963C36.9185 42.252 49.7508 22.8149 44.7406 4.44449C42.0739 -5.33327 65.7489 -8.74671 55.9998 13.926C30.5185 73.1852 10.6665 43.024 12.7407 42.963Z" fill="white" fill-opacity="0.65"/>
</g>
<g filter="url(#filter9_f_1934_2569)">
<circle cx="23.4078" cy="48.2963" r="6.22222" fill="#F2F2F7"/>
</g>
<g filter="url(#filter10_f_1934_2569)">
<path d="M6.51855 14.1776C6.51872 8.87437 11.5949 6.91456 13.7215 6.57196C17.1217 6.0242 18.2493 9.86088 12.8986 10.272C6.51872 10.8887 6.51839 19.7276 6.51855 14.1776Z" fill="url(#paint1_linear_1934_2569)"/>
</g>
<g filter="url(#filter11_f_1934_2569)">
<path d="M25.4814 14.1776C25.4816 8.87437 30.5578 6.91456 32.6844 6.57196C36.0846 6.0242 37.2122 9.86088 31.8615 10.272C25.4816 10.8887 25.4813 19.7276 25.4814 14.1776Z" fill="url(#paint2_linear_1934_2569)"/>
</g>
</g>
<defs>
<filter id="filter0_i_1934_2569" x="-3" y="-3.00012" width="51" height="51" filterUnits="userSpaceOnUse" color-interpolation-filters="sRGB">
<feFlood flood-opacity="0" result="BackgroundImageFix"/>
<feBlend mode="normal" in="SourceGraphic" in2="BackgroundImageFix" result="shape"/>
<feColorMatrix in="SourceAlpha" type="matrix" values="0 0 0 0 0 0 0 0 0 0 0 0 0 0 0 0 0 0 127 0" result="hardAlpha"/>
<feOffset dx="-5" dy="-5"/>
<feGaussianBlur stdDeviation="1.5"/>
<feComposite in2="hardAlpha" operator="arithmetic" k2="-1" k3="1"/>
<feColorMatrix type="matrix" values="0 0 0 0 1 0 0 0 0 0.48 0 0 0 0 0 0 0 0 0.5 0"/>
<feBlend mode="normal" in2="shape" result="effect1_innerShadow_1934_2569"/>
</filter>
<filter id="filter1_di_1934_2569" x="5.28809" y="6.3006" width="20.8281" height="19.3948" filterUnits="userSpaceOnUse" color-interpolation-filters="sRGB">
<feFlood flood-opacity="0" result="BackgroundImageFix"/>
<feColorMatrix in="SourceAlpha" type="matrix" values="0 0 0 0 0 0 0 0 0 0 0 0 0 0 0 0 0 0 127 0" result="hardAlpha"/>
<feOffset dy="1"/>
<feGaussianBlur stdDeviation="0.5"/>
<feComposite in2="hardAlpha" operator="out"/>
<feColorMatrix type="matrix" values="0 0 0 0 1 0 0 0 0 0.48 0 0 0 0 0 0 0 0 0.25 0"/>
<feBlend mode="normal" in2="BackgroundImageFix" result="effect1_dropShadow_1934_2569"/>
<feBlend mode="normal" in="SourceGraphic" in2="effect1_dropShadow_1934_2569" result="shape"/>
<feColorMatrix in="SourceAlpha" type="matrix" values="0 0 0 0 0 0 0 0 0 0 0 0 0 0 0 0 0 0 127 0" result="hardAlpha"/>
<feOffset dx="4" dy="4"/>
<feGaussianBlur stdDeviation="2"/>
<feComposite in2="hardAlpha" operator="arithmetic" k2="-1" k3="1"/>
<feColorMatrix type="matrix" values="0 0 0 0 0.0865385 0 0 0 0 0.0836261 0 0 0 0 0.0836261 0 0 0 0.25 0"/>
<feBlend mode="normal" in2="shape" result="effect2_innerShadow_1934_2569"/>
</filter>
<filter id="filter2_di_1934_2569" x="24.7236" y="6.3006" width="20.8291" height="19.3948" filterUnits="userSpaceOnUse" color-interpolation-filters="sRGB">
<feFlood flood-opacity="0" result="BackgroundImageFix"/>
<feColorMatrix in="SourceAlpha" type="matrix" values="0 0 0 0 0 0 0 0 0 0 0 0 0 0 0 0 0 0 127 0" result="hardAlpha"/>
<feOffset dy="1"/>
<feGaussianBlur stdDeviation="0.5"/>
<feComposite in2="hardAlpha" operator="out"/>
<feColorMatrix type="matrix" values="0 0 0 0 1 0 0 0 0 0.48 0 0 0 0 0 0 0 0 0.25 0"/>
<feBlend mode="normal" in2="BackgroundImageFix" result="effect1_dropShadow_1934_2569"/>
<feBlend mode="normal" in="SourceGraphic" in2="effect1_dropShadow_1934_2569" result="shape"/>
<feColorMatrix in="SourceAlpha" type="matrix" values="0 0 0 0 0 0 0 0 0 0 0 0 0 0 0 0 0 0 127 0" result="hardAlpha"/>
<feOffset dx="4" dy="4"/>
<feGaussianBlur stdDeviation="2"/>
<feComposite in2="hardAlpha" operator="arithmetic" k2="-1" k3="1"/>
<feColorMatrix type="matrix" values="0 0 0 0 0.0865385 0 0 0 0 0.0836261 0 0 0 0 0.0836261 0 0 0 0.25 0"/>
<feBlend mode="normal" in2="shape" result="effect2_innerShadow_1934_2569"/>
</filter>
<filter id="filter3_i_1934_2569" x="10.2295" y="24.3934" width="28.3281" height="15.1639" filterUnits="userSpaceOnUse" color-interpolation-filters="sRGB">
<feFlood flood-opacity="0" result="BackgroundImageFix"/>
<feBlend mode="normal" in="SourceGraphic" in2="BackgroundImageFix" result="shape"/>
<feColorMatrix in="SourceAlpha" type="matrix" values="0 0 0 0 0 0 0 0 0 0 0 0 0 0 0 0 0 0 127 0" result="hardAlpha"/>
<feOffset dy="1"/>
<feGaussianBlur stdDeviation="0.5"/>
<feComposite in2="hardAlpha" operator="arithmetic" k2="-1" k3="1"/>
<feColorMatrix type="matrix" values="0 0 0 0 0.991667 0 0 0 0 0.210729 0 0 0 0 0.210729 0 0 0 0.25 0"/>
<feBlend mode="normal" in2="shape" result="effect1_innerShadow_1934_2569"/>
</filter>
<filter id="filter4_di_1934_2569" x="10.8037" y="24.3934" width="27.1807" height="4.36066" filterUnits="userSpaceOnUse" color-interpolation-filters="sRGB">
<feFlood flood-opacity="0" result="BackgroundImageFix"/>
<feColorMatrix in="SourceAlpha" type="matrix" values="0 0 0 0 0 0 0 0 0 0 0 0 0 0 0 0 0 0 127 0" result="hardAlpha"/>
<feOffset dy="1"/>
<feGaussianBlur stdDeviation="0.5"/>
<feComposite in2="hardAlpha" operator="out"/>
<feColorMatrix type="matrix" values="0 0 0 0 0.991667 0 0 0 0 0.210729 0 0 0 0 0.210729 0 0 0 0.25 0"/>
<feBlend mode="normal" in2="BackgroundImageFix" result="effect1_dropShadow_1934_2569"/>
<feBlend mode="normal" in="SourceGraphic" in2="effect1_dropShadow_1934_2569" result="shape"/>
<feColorMatrix in="SourceAlpha" type="matrix" values="0 0 0 0 0 0 0 0 0 0 0 0 0 0 0 0 0 0 127 0" result="hardAlpha"/>
<feOffset dy="1"/>
<feGaussianBlur stdDeviation="0.5"/>
<feComposite in2="hardAlpha" operator="arithmetic" k2="-1" k3="1"/>
<feColorMatrix type="matrix" values="0 0 0 0 0 0 0 0 0 0 0 0 0 0 0 0 0 0 0.25 0"/>
<feBlend mode="normal" in2="shape" result="effect2_innerShadow_1934_2569"/>
</filter>
<filter id="filter5_d_1934_2569" x="11.377" y="9.22943" width="9.50781" height="11.8688" filterUnits="userSpaceOnUse" color-interpolation-filters="sRGB">
<feFlood flood-opacity="0" result="BackgroundImageFix"/>
<feColorMatrix in="SourceAlpha" type="matrix" values="0 0 0 0 0 0 0 0 0 0 0 0 0 0 0 0 0 0 127 0" result="hardAlpha"/>
<feOffset dy="1"/>
<feGaussianBlur stdDeviation="1"/>
<feComposite in2="hardAlpha" operator="out"/>
<feColorMatrix type="matrix" values="0 0 0 0 0 0 0 0 0 0 0 0 0 0 0 0 0 0 0.5 0"/>
<feBlend mode="normal" in2="BackgroundImageFix" result="effect1_dropShadow_1934_2569"/>
<feBlend mode="normal" in="SourceGraphic" in2="effect1_dropShadow_1934_2569" result="shape"/>
</filter>
<filter id="filter6_d_1934_2569" x="27.1152" y="9.22943" width="9.50781" height="11.8688" filterUnits="userSpaceOnUse" color-interpolation-filters="sRGB">
<feFlood flood-opacity="0" result="BackgroundImageFix"/>
<feColorMatrix in="SourceAlpha" type="matrix" values="0 0 0 0 0 0 0 0 0 0 0 0 0 0 0 0 0 0 127 0" result="hardAlpha"/>
<feOffset dy="1"/>
<feGaussianBlur stdDeviation="1"/>
<feComposite in2="hardAlpha" operator="out"/>
<feColorMatrix type="matrix" values="0 0 0 0 0 0 0 0 0 0 0 0 0 0 0 0 0 0 0.5 0"/>
<feBlend mode="normal" in2="BackgroundImageFix" result="effect1_dropShadow_1934_2569"/>
<feBlend mode="normal" in="SourceGraphic" in2="effect1_dropShadow_1934_2569" result="shape"/>
</filter>
<filter id="filter7_f_1934_2569" x="-55.4775" y="-54.4147" width="114.207" height="119.554" filterUnits="userSpaceOnUse" color-interpolation-filters="sRGB">
<feFlood flood-opacity="0" result="BackgroundImageFix"/>
<feBlend mode="normal" in="SourceGraphic" in2="BackgroundImageFix" result="shape"/>
<feGaussianBlur stdDeviation="20" result="effect1_foregroundBlur_1934_2569"/>
</filter>
<filter id="filter8_f_1934_2569" x="-12.4082" y="-28.0922" width="95.7764" height="103.784" filterUnits="userSpaceOnUse" color-interpolation-filters="sRGB">
<feFlood flood-opacity="0" result="BackgroundImageFix"/>
<feBlend mode="normal" in="SourceGraphic" in2="BackgroundImageFix" result="shape"/>
<feGaussianBlur stdDeviation="12.5" result="effect1_foregroundBlur_1934_2569"/>
</filter>
<filter id="filter9_f_1934_2569" x="2.18555" y="27.0741" width="42.4443" height="42.4445" filterUnits="userSpaceOnUse" color-interpolation-filters="sRGB">
<feFlood flood-opacity="0" result="BackgroundImageFix"/>
<feBlend mode="normal" in="SourceGraphic" in2="BackgroundImageFix" result="shape"/>
<feGaussianBlur stdDeviation="7.5" result="effect1_foregroundBlur_1934_2569"/>
</filter>
<filter id="filter10_f_1934_2569" x="5.51855" y="5.51855" width="12.0742" height="11.4815" filterUnits="userSpaceOnUse" color-interpolation-filters="sRGB">
<feFlood flood-opacity="0" result="BackgroundImageFix"/>
<feBlend mode="normal" in="SourceGraphic" in2="BackgroundImageFix" result="shape"/>
<feGaussianBlur stdDeviation="0.5" result="effect1_foregroundBlur_1934_2569"/>
</filter>
<filter id="filter11_f_1934_2569" x="24.4814" y="5.51855" width="12.0742" height="11.4815" filterUnits="userSpaceOnUse" color-interpolation-filters="sRGB">
<feFlood flood-opacity="0" result="BackgroundImageFix"/>
<feBlend mode="normal" in="SourceGraphic" in2="BackgroundImageFix" result="shape"/>
<feGaussianBlur stdDeviation="0.5" result="effect1_foregroundBlur_1934_2569"/>
</filter>
<linearGradient id="paint0_linear_1934_2569" x1="1.44306" y1="-1.01682" x2="1.62592" y2="20.4734" gradientUnits="userSpaceOnUse">
<stop offset="0.286458" stop-color="white" stop-opacity="0.92"/>
<stop offset="1" stop-color="white" stop-opacity="0.32"/>
</linearGradient>
<linearGradient id="paint1_linear_1934_2569" x1="14.8149" y1="6.81485" x2="7.11115" y2="15.4074" gradientUnits="userSpaceOnUse">
<stop stop-color="white"/>
<stop offset="1" stop-color="white" stop-opacity="0"/>
</linearGradient>
<linearGradient id="paint2_linear_1934_2569" x1="33.7777" y1="6.81485" x2="26.074" y2="15.4074" gradientUnits="userSpaceOnUse">
<stop stop-color="white"/>
<stop offset="1" stop-color="white" stop-opacity="0"/>
</linearGradient>
</defs>
</svg>
