<svg width="24" height="24" viewBox="0 0 24 24" fill="none" xmlns="http://www.w3.org/2000/svg">
<path fill-rule="evenodd" clip-rule="evenodd" d="M7.4497 7.69678C7.5487 7.66378 7.80797 7.64964 8.27782 7.7832C8.71781 7.90891 9.2128 8.12734 9.69521 8.37876C10.2843 8.68703 10.8532 9.03239 11.3986 9.41273L11.4222 9.42845L11.4269 9.43316C11.594 9.55337 11.7946 9.61804 12.0004 9.61804C12.2063 9.61804 12.4069 9.55337 12.574 9.43316L12.5787 9.42845L12.6023 9.41273C12.7562 9.30274 12.9134 9.19741 13.0737 9.09688C13.3927 8.8926 13.8295 8.62547 14.3057 8.37876C14.7881 8.12734 15.2831 7.91049 15.7231 7.7832C16.1945 7.64964 16.4522 7.66378 16.5512 7.69678C16.5983 7.71249 16.7256 7.77378 16.9409 7.93249C17.1452 8.08543 17.3777 8.28814 17.6386 8.54061C18.1603 9.04031 18.7307 9.67515 19.2697 10.31C19.5337 10.6211 19.7867 10.9291 20.0177 11.2167H3.98321C4.21421 10.9291 4.4672 10.6211 4.7312 10.31C5.27018 9.67515 5.8406 9.04031 6.3623 8.54061C6.62315 8.28814 6.85571 8.08596 7.05999 7.93406C7.27527 7.77377 7.40256 7.71249 7.4497 7.69678ZM1.46899 11.8217L1.19086 11.6174L1.194 11.6142L1.20343 11.6017L1.23486 11.5592C1.41817 11.3107 1.60465 11.0645 1.79427 10.8207C2.16355 10.3461 2.67268 9.70187 3.23209 9.04031C3.78993 8.3819 4.41063 7.68892 5.00147 7.12322C5.2803 6.85061 5.57576 6.59555 5.88617 6.35953C6.1643 6.1521 6.48801 5.94625 6.82743 5.83311C7.49841 5.6084 8.23382 5.72783 8.81838 5.89597C9.43593 6.07196 10.0598 6.35481 10.6003 6.63452C11.1472 6.91894 11.6374 7.21908 11.9894 7.44536L12.0004 7.45007L12.0114 7.44378C12.3634 7.2175 12.8537 6.91894 13.4005 6.63452C13.969 6.33037 14.5658 6.08249 15.1825 5.89439C15.7671 5.72626 16.5025 5.60683 17.1734 5.83154C17.5129 5.94468 17.8366 6.15053 18.1147 6.35795C18.4054 6.57481 18.704 6.8388 18.9994 7.12165C19.5902 7.68735 20.2109 8.38033 20.7688 9.03874C21.4599 9.85757 22.1254 10.6976 22.7644 11.5577L22.7974 11.6001L22.8069 11.6127L22.8084 11.6158C23.03 11.9191 23.0614 12.3229 22.8886 12.6529L22.5649 12.4848L22.887 12.6545L22.8854 12.6576L22.8823 12.6655L22.8713 12.6844L22.8383 12.7441L22.7173 12.9468C22.5722 13.1797 22.417 13.4062 22.2522 13.6256C21.694 14.3672 21.0523 15.0421 20.3398 15.637C18.5893 17.1031 15.8692 18.5519 12.0004 18.5519C8.13168 18.5519 5.41161 17.1031 3.66108 15.637C2.94858 15.0421 2.3069 14.3672 1.7487 13.6256C1.52369 13.324 1.31695 13.0091 1.12957 12.6828L1.11857 12.6671L1.11543 12.6592L1.11229 12.6576L1.43442 12.4848L1.11072 12.6561C1.02631 12.4929 0.988953 12.3095 1.00283 12.1264C1.0167 11.9432 1.08126 11.7675 1.18929 11.619L1.46899 11.8217ZM20.0742 13.1809C19.7629 13.5188 19.4307 13.8368 19.0795 14.1332C17.6213 15.3526 15.3349 16.5893 12.0004 16.5893C8.66595 16.5893 6.37958 15.3542 4.92133 14.1332C4.57075 13.8368 4.23906 13.5188 3.92822 13.1809H20.0742Z" fill="white"/>
</svg>
