<svg width="24" height="24" viewBox="0 0 24 24" fill="none" xmlns="http://www.w3.org/2000/svg">
<path d="M14.8029 4.90751C13.8393 5.86645 13.8498 7.42942 14.8262 8.37531L15.7076 9.22905C16.6545 10.1464 18.1628 10.1326 19.0928 9.19805C19.8706 8.41655 19.8692 7.15304 19.0897 6.37328L17.6281 4.91122C16.8485 4.1313 15.5846 4.12964 14.8029 4.90751Z" fill="#F2F2F2"/>
<path d="M14.8029 4.90751L5.74644 13.9196C5.37947 14.2848 5.11325 14.7387 4.97366 15.2372L3.5 20.5L8.76313 19.0264C9.26163 18.8868 9.71554 18.6206 10.0807 18.2537L19.0928 9.19805M14.8029 4.90751C15.5846 4.12964 16.8485 4.1313 17.6281 4.91122L19.0897 6.37328C19.8692 7.15304 19.8706 8.41655 19.0928 9.19805M14.8029 4.90751V4.90751C13.8393 5.86645 13.8498 7.42942 14.8262 8.37531L15.7076 9.22905C16.6545 10.1464 18.1628 10.1326 19.0928 9.19805V9.19805" stroke="#F2F2F2" stroke-width="1.5" stroke-linejoin="round"/>
</svg>
