<svg width="51" height="51" viewBox="0 0 51 51" fill="none" xmlns="http://www.w3.org/2000/svg">
<path d="M25.707 17.5262C27.8297 17.4973 29.9628 18.2838 31.5832 19.9041C33.2036 21.5244 33.9901 23.6574 33.9613 25.78M25.707 9.23531C29.9402 9.23531 34.1754 10.8515 37.4059 14.0818C40.6364 17.3121 42.2529 21.5471 42.2529 25.78M23.0815 27.9194C20.6073 25.4452 18.742 22.6751 17.5028 19.8647C17.2406 19.2705 17.3949 18.5748 17.8538 18.1159L19.5858 16.3861C21.0048 14.9672 21.0048 12.9604 19.7656 11.7212L17.2828 9.23865C15.6312 7.58712 12.9539 7.58712 11.3023 9.23865L9.92346 10.6174C8.35642 12.1843 7.70295 14.4449 8.12591 16.6864C9.1706 22.212 12.3808 28.2619 17.5599 33.4407C22.7389 38.6195 28.7893 41.8295 34.3152 42.8741C36.5568 43.297 38.8175 42.6436 40.3846 41.0767L41.7613 39.7C43.4129 38.0485 43.4129 35.3714 41.7613 33.7198L39.2807 31.2394C38.0414 30.0002 36.0324 30.0002 34.7952 31.2394L32.8856 33.151C32.4267 33.6099 31.7309 33.7642 31.1367 33.502C28.3262 32.2607 25.5558 30.3935 23.0815 27.9194Z" stroke="#F2F2F2" stroke-width="2.69909" stroke-linecap="round" stroke-linejoin="round"/>
</svg>
