<svg width="48" height="48" viewBox="0 0 48 48" fill="none" xmlns="http://www.w3.org/2000/svg">
<g filter="url(#filter0_i_1934_2608)">
<path d="M24 48C37.2548 48 48 37.2548 48 24C48 10.7452 37.2548 0 24 0C10.7452 0 0 10.7452 0 24C0 37.2548 10.7452 48 24 48Z" fill="#FFE019"/>
</g>
<g opacity="0.8" filter="url(#filter1_di_1934_2608)">
<path d="M41.7213 27.1475C41.3012 31.9491 38.214 30.2614 33.8625 29.8807C29.5111 29.5 26.3241 25.2989 26.7442 20.4973C27.1643 15.6957 31.0324 12.1119 35.3838 12.4926C39.7352 12.8733 42.1414 22.346 41.7213 27.1475Z" fill="#F2F2F7"/>
</g>
<g opacity="0.8" filter="url(#filter2_di_1934_2608)">
<path d="M6.73275 27.1475C7.15282 31.9491 10.2401 30.2614 14.5915 29.8807C18.9429 29.5 22.13 25.2989 21.7099 20.4973C21.2897 15.6957 17.4216 12.1119 13.0702 12.4926C8.71877 12.8733 6.31266 22.346 6.73275 27.1475Z" fill="#F2F2F7"/>
</g>
<path d="M32.2626 25.9672C34.4355 25.9672 36.197 23.5011 36.197 20.459C36.197 17.4169 34.4355 14.9508 32.2626 14.9508C30.0896 14.9508 28.3281 17.4169 28.3281 20.459C28.3281 23.5011 30.0896 25.9672 32.2626 25.9672Z" fill="#202740"/>
<path d="M16.5243 25.9672C18.6972 25.9672 20.4587 23.5011 20.4587 20.459C20.4587 17.4169 18.6972 14.9508 16.5243 14.9508C14.3513 14.9508 12.5898 17.4169 12.5898 20.459C12.5898 23.5011 14.3513 25.9672 16.5243 25.9672Z" fill="#202740"/>
<g filter="url(#filter3_di_1934_2608)">
<path d="M40.9176 35.2247C40.9176 32.9293 39.1447 29.1147 38.1841 29.1147C37.2234 29.1147 36.1963 32.9293 36.1963 35.2247C36.1963 37.5201 37.4459 37.7705 38.4066 37.7705C39.3672 37.7705 40.9176 37.5201 40.9176 35.2247Z" fill="#2ECFF1"/>
</g>
<g filter="url(#filter4_di_1934_2608)">
<path d="M12.5905 34.4377C12.5905 32.1423 10.8176 28.3278 9.85697 28.3278C8.89626 28.3278 7.86914 32.1423 7.86914 34.4377C7.86914 36.7332 9.11879 36.9836 10.0794 36.9836C11.0401 36.9836 12.5905 36.7332 12.5905 34.4377Z" fill="#2ECFF1"/>
</g>
<g filter="url(#filter5_di_1934_2608)">
<path d="M24.0933 33.0491C20.5458 33.0491 17.3115 37.0366 17.3115 38.5576C17.3115 40.0787 20.5458 38.5573 24.0933 38.5573C27.6407 38.5573 30.6886 39.7264 30.6886 38.2054C30.6886 36.6843 27.6407 33.0491 24.0933 33.0491Z" fill="#EDACAD"/>
</g>
<mask id="mask0_1934_2608" style="mask-type:alpha" maskUnits="userSpaceOnUse" x="0" y="0" width="48" height="48">
<circle cx="24" cy="24" r="24" fill="#D9D9D9"/>
</mask>
<g mask="url(#mask0_1934_2608)">
<g style="mix-blend-mode:lighten" filter="url(#filter6_f_1934_2608)">
<ellipse cx="1.62592" cy="5.36225" rx="21.3333" ry="15.1111" transform="rotate(-57.8599 1.62592 5.36225)" fill="url(#paint0_linear_1934_2608)" fill-opacity="0.8"/>
</g>
<g filter="url(#filter7_f_1934_2608)">
<path d="M12.7407 42.963C36.9185 42.252 49.7508 22.8149 44.7406 4.44449C42.0739 -5.33327 65.7489 -8.74671 55.9998 13.926C30.5185 73.1852 10.6665 43.024 12.7407 42.963Z" fill="white" fill-opacity="0.65"/>
</g>
<g filter="url(#filter8_f_1934_2608)">
<circle cx="23.4078" cy="48.2963" r="6.22222" fill="#F2F2F7"/>
</g>
<g filter="url(#filter9_f_1934_2608)">
<path d="M7 20.659C7.00016 15.3558 12.0763 13.396 14.2029 13.0534C17.6031 12.5056 18.7308 16.3423 13.38 16.7534C7.00017 17.3701 6.99983 26.2091 7 20.659Z" fill="url(#paint1_linear_1934_2608)"/>
</g>
<g filter="url(#filter10_f_1934_2608)">
<path d="M8 11.659C8.00016 6.35582 13.0763 4.39601 15.2029 4.05341C18.6031 3.50564 19.7308 7.34232 14.38 7.75345C8.00017 8.37011 7.99983 17.2091 8 11.659Z" fill="url(#paint2_linear_1934_2608)"/>
</g>
<g filter="url(#filter11_f_1934_2608)">
<path d="M27 20.659C27.0002 15.3558 32.0763 13.396 34.2029 13.0534C37.6031 12.5056 38.7308 16.3423 33.38 16.7534C27.0002 17.3701 26.9998 26.2091 27 20.659Z" fill="url(#paint3_linear_1934_2608)"/>
</g>
</g>
<defs>
<filter id="filter0_i_1934_2608" x="-3" y="-3" width="51" height="51" filterUnits="userSpaceOnUse" color-interpolation-filters="sRGB">
<feFlood flood-opacity="0" result="BackgroundImageFix"/>
<feBlend mode="normal" in="SourceGraphic" in2="BackgroundImageFix" result="shape"/>
<feColorMatrix in="SourceAlpha" type="matrix" values="0 0 0 0 0 0 0 0 0 0 0 0 0 0 0 0 0 0 127 0" result="hardAlpha"/>
<feOffset dx="-5" dy="-5"/>
<feGaussianBlur stdDeviation="1.5"/>
<feComposite in2="hardAlpha" operator="arithmetic" k2="-1" k3="1"/>
<feColorMatrix type="matrix" values="0 0 0 0 1 0 0 0 0 0.6 0 0 0 0 0 0 0 0 0.5 0"/>
<feBlend mode="normal" in2="shape" result="effect1_innerShadow_1934_2608"/>
</filter>
<filter id="filter1_di_1934_2608" x="25.707" y="12.4648" width="17.0615" height="22.0135" filterUnits="userSpaceOnUse" color-interpolation-filters="sRGB">
<feFlood flood-opacity="0" result="BackgroundImageFix"/>
<feColorMatrix in="SourceAlpha" type="matrix" values="0 0 0 0 0 0 0 0 0 0 0 0 0 0 0 0 0 0 127 0" result="hardAlpha"/>
<feOffset dy="1"/>
<feGaussianBlur stdDeviation="0.5"/>
<feComposite in2="hardAlpha" operator="out"/>
<feColorMatrix type="matrix" values="0 0 0 0 1 0 0 0 0 0.6 0 0 0 0 0 0 0 0 0.3 0"/>
<feBlend mode="normal" in2="BackgroundImageFix" result="effect1_dropShadow_1934_2608"/>
<feBlend mode="normal" in="SourceGraphic" in2="effect1_dropShadow_1934_2608" result="shape"/>
<feColorMatrix in="SourceAlpha" type="matrix" values="0 0 0 0 0 0 0 0 0 0 0 0 0 0 0 0 0 0 127 0" result="hardAlpha"/>
<feOffset dy="4"/>
<feGaussianBlur stdDeviation="2"/>
<feComposite in2="hardAlpha" operator="arithmetic" k2="-1" k3="1"/>
<feColorMatrix type="matrix" values="0 0 0 0 0 0 0 0 0 0 0 0 0 0 0 0 0 0 0.25 0"/>
<feBlend mode="normal" in2="shape" result="effect2_innerShadow_1934_2608"/>
</filter>
<filter id="filter2_di_1934_2608" x="5.68555" y="12.4648" width="17.0615" height="22.0135" filterUnits="userSpaceOnUse" color-interpolation-filters="sRGB">
<feFlood flood-opacity="0" result="BackgroundImageFix"/>
<feColorMatrix in="SourceAlpha" type="matrix" values="0 0 0 0 0 0 0 0 0 0 0 0 0 0 0 0 0 0 127 0" result="hardAlpha"/>
<feOffset dy="1"/>
<feGaussianBlur stdDeviation="0.5"/>
<feComposite in2="hardAlpha" operator="out"/>
<feColorMatrix type="matrix" values="0 0 0 0 1 0 0 0 0 0.6 0 0 0 0 0 0 0 0 0.3 0"/>
<feBlend mode="normal" in2="BackgroundImageFix" result="effect1_dropShadow_1934_2608"/>
<feBlend mode="normal" in="SourceGraphic" in2="effect1_dropShadow_1934_2608" result="shape"/>
<feColorMatrix in="SourceAlpha" type="matrix" values="0 0 0 0 0 0 0 0 0 0 0 0 0 0 0 0 0 0 127 0" result="hardAlpha"/>
<feOffset dy="4"/>
<feGaussianBlur stdDeviation="2"/>
<feComposite in2="hardAlpha" operator="arithmetic" k2="-1" k3="1"/>
<feColorMatrix type="matrix" values="0 0 0 0 0 0 0 0 0 0 0 0 0 0 0 0 0 0 0.25 0"/>
<feBlend mode="normal" in2="shape" result="effect2_innerShadow_1934_2608"/>
</filter>
<filter id="filter3_di_1934_2608" x="35.1963" y="29.1147" width="6.72168" height="10.6558" filterUnits="userSpaceOnUse" color-interpolation-filters="sRGB">
<feFlood flood-opacity="0" result="BackgroundImageFix"/>
<feColorMatrix in="SourceAlpha" type="matrix" values="0 0 0 0 0 0 0 0 0 0 0 0 0 0 0 0 0 0 127 0" result="hardAlpha"/>
<feOffset dy="1"/>
<feGaussianBlur stdDeviation="0.5"/>
<feComposite in2="hardAlpha" operator="out"/>
<feColorMatrix type="matrix" values="0 0 0 0 0 0 0 0 0 0 0 0 0 0 0 0 0 0 0.25 0"/>
<feBlend mode="normal" in2="BackgroundImageFix" result="effect1_dropShadow_1934_2608"/>
<feBlend mode="normal" in="SourceGraphic" in2="effect1_dropShadow_1934_2608" result="shape"/>
<feColorMatrix in="SourceAlpha" type="matrix" values="0 0 0 0 0 0 0 0 0 0 0 0 0 0 0 0 0 0 127 0" result="hardAlpha"/>
<feOffset dy="1"/>
<feGaussianBlur stdDeviation="0.5"/>
<feComposite in2="hardAlpha" operator="arithmetic" k2="-1" k3="1"/>
<feColorMatrix type="matrix" values="0 0 0 0 0 0 0 0 0 0 0 0 0 0 0 0 0 0 0.25 0"/>
<feBlend mode="normal" in2="shape" result="effect2_innerShadow_1934_2608"/>
</filter>
<filter id="filter4_di_1934_2608" x="6.86914" y="28.3278" width="6.72168" height="10.6558" filterUnits="userSpaceOnUse" color-interpolation-filters="sRGB">
<feFlood flood-opacity="0" result="BackgroundImageFix"/>
<feColorMatrix in="SourceAlpha" type="matrix" values="0 0 0 0 0 0 0 0 0 0 0 0 0 0 0 0 0 0 127 0" result="hardAlpha"/>
<feOffset dy="1"/>
<feGaussianBlur stdDeviation="0.5"/>
<feComposite in2="hardAlpha" operator="out"/>
<feColorMatrix type="matrix" values="0 0 0 0 0 0 0 0 0 0 0 0 0 0 0 0 0 0 0.25 0"/>
<feBlend mode="normal" in2="BackgroundImageFix" result="effect1_dropShadow_1934_2608"/>
<feBlend mode="normal" in="SourceGraphic" in2="effect1_dropShadow_1934_2608" result="shape"/>
<feColorMatrix in="SourceAlpha" type="matrix" values="0 0 0 0 0 0 0 0 0 0 0 0 0 0 0 0 0 0 127 0" result="hardAlpha"/>
<feOffset dy="1"/>
<feGaussianBlur stdDeviation="0.5"/>
<feComposite in2="hardAlpha" operator="arithmetic" k2="-1" k3="1"/>
<feColorMatrix type="matrix" values="0 0 0 0 0 0 0 0 0 0 0 0 0 0 0 0 0 0 0.25 0"/>
<feBlend mode="normal" in2="shape" result="effect2_innerShadow_1934_2608"/>
</filter>
<filter id="filter5_di_1934_2608" x="16.3115" y="33.0491" width="15.377" height="8.18445" filterUnits="userSpaceOnUse" color-interpolation-filters="sRGB">
<feFlood flood-opacity="0" result="BackgroundImageFix"/>
<feColorMatrix in="SourceAlpha" type="matrix" values="0 0 0 0 0 0 0 0 0 0 0 0 0 0 0 0 0 0 127 0" result="hardAlpha"/>
<feOffset dy="1"/>
<feGaussianBlur stdDeviation="0.5"/>
<feComposite in2="hardAlpha" operator="out"/>
<feColorMatrix type="matrix" values="0 0 0 0 0 0 0 0 0 0 0 0 0 0 0 0 0 0 0.25 0"/>
<feBlend mode="normal" in2="BackgroundImageFix" result="effect1_dropShadow_1934_2608"/>
<feBlend mode="normal" in="SourceGraphic" in2="effect1_dropShadow_1934_2608" result="shape"/>
<feColorMatrix in="SourceAlpha" type="matrix" values="0 0 0 0 0 0 0 0 0 0 0 0 0 0 0 0 0 0 127 0" result="hardAlpha"/>
<feOffset dy="1"/>
<feGaussianBlur stdDeviation="0.5"/>
<feComposite in2="hardAlpha" operator="arithmetic" k2="-1" k3="1"/>
<feColorMatrix type="matrix" values="0 0 0 0 0.991667 0 0 0 0 0.210729 0 0 0 0 0.210729 0 0 0 0.25 0"/>
<feBlend mode="normal" in2="shape" result="effect2_innerShadow_1934_2608"/>
</filter>
<filter id="filter6_f_1934_2608" x="-55.4775" y="-54.4147" width="114.207" height="119.554" filterUnits="userSpaceOnUse" color-interpolation-filters="sRGB">
<feFlood flood-opacity="0" result="BackgroundImageFix"/>
<feBlend mode="normal" in="SourceGraphic" in2="BackgroundImageFix" result="shape"/>
<feGaussianBlur stdDeviation="20" result="effect1_foregroundBlur_1934_2608"/>
</filter>
<filter id="filter7_f_1934_2608" x="-12.4082" y="-28.0922" width="95.7764" height="103.784" filterUnits="userSpaceOnUse" color-interpolation-filters="sRGB">
<feFlood flood-opacity="0" result="BackgroundImageFix"/>
<feBlend mode="normal" in="SourceGraphic" in2="BackgroundImageFix" result="shape"/>
<feGaussianBlur stdDeviation="12.5" result="effect1_foregroundBlur_1934_2608"/>
</filter>
<filter id="filter8_f_1934_2608" x="2.18555" y="27.0741" width="42.4443" height="42.4445" filterUnits="userSpaceOnUse" color-interpolation-filters="sRGB">
<feFlood flood-opacity="0" result="BackgroundImageFix"/>
<feBlend mode="normal" in="SourceGraphic" in2="BackgroundImageFix" result="shape"/>
<feGaussianBlur stdDeviation="7.5" result="effect1_foregroundBlur_1934_2608"/>
</filter>
<filter id="filter9_f_1934_2608" x="6" y="12" width="12.0742" height="11.4815" filterUnits="userSpaceOnUse" color-interpolation-filters="sRGB">
<feFlood flood-opacity="0" result="BackgroundImageFix"/>
<feBlend mode="normal" in="SourceGraphic" in2="BackgroundImageFix" result="shape"/>
<feGaussianBlur stdDeviation="0.5" result="effect1_foregroundBlur_1934_2608"/>
</filter>
<filter id="filter10_f_1934_2608" x="7" y="3" width="12.0742" height="11.4815" filterUnits="userSpaceOnUse" color-interpolation-filters="sRGB">
<feFlood flood-opacity="0" result="BackgroundImageFix"/>
<feBlend mode="normal" in="SourceGraphic" in2="BackgroundImageFix" result="shape"/>
<feGaussianBlur stdDeviation="0.5" result="effect1_foregroundBlur_1934_2608"/>
</filter>
<filter id="filter11_f_1934_2608" x="26" y="12" width="12.0742" height="11.4815" filterUnits="userSpaceOnUse" color-interpolation-filters="sRGB">
<feFlood flood-opacity="0" result="BackgroundImageFix"/>
<feBlend mode="normal" in="SourceGraphic" in2="BackgroundImageFix" result="shape"/>
<feGaussianBlur stdDeviation="0.5" result="effect1_foregroundBlur_1934_2608"/>
</filter>
<linearGradient id="paint0_linear_1934_2608" x1="1.44306" y1="-1.01682" x2="1.62592" y2="20.4734" gradientUnits="userSpaceOnUse">
<stop offset="0.286458" stop-color="white" stop-opacity="0.92"/>
<stop offset="1" stop-color="white" stop-opacity="0.32"/>
</linearGradient>
<linearGradient id="paint1_linear_1934_2608" x1="15.2963" y1="13.2963" x2="7.59259" y2="21.8889" gradientUnits="userSpaceOnUse">
<stop stop-color="white"/>
<stop offset="1" stop-color="white" stop-opacity="0"/>
</linearGradient>
<linearGradient id="paint2_linear_1934_2608" x1="16.2963" y1="4.2963" x2="8.59259" y2="12.8889" gradientUnits="userSpaceOnUse">
<stop stop-color="white"/>
<stop offset="1" stop-color="white" stop-opacity="0"/>
</linearGradient>
<linearGradient id="paint3_linear_1934_2608" x1="35.2963" y1="13.2963" x2="27.5926" y2="21.8889" gradientUnits="userSpaceOnUse">
<stop stop-color="white"/>
<stop offset="1" stop-color="white" stop-opacity="0"/>
</linearGradient>
</defs>
</svg>
