<svg width="48" height="48" viewBox="0 0 48 48" fill="none" xmlns="http://www.w3.org/2000/svg">
<path d="M30.0147 23.9645H36.2803C39.4392 23.9645 42 26.5253 42 29.6842C42 31.2636 40.7196 32.544 39.1401 32.544H36.9457M25.8202 16.9759C25.8202 20.2762 23.1393 22.9517 19.8322 22.9517C16.5252 22.9517 13.8443 20.2762 13.8443 16.9759C13.8443 13.6755 16.5252 11 19.8322 11C23.1393 11 25.8202 13.6755 25.8202 16.9759ZM19.8313 27.2202C18.019 27.2202 15.8569 27.2202 13.8288 27.2202C10.0569 27.2202 7 30.2779 7 34.0498C7 35.9357 8.52886 37.4646 10.4148 37.4646H29.2479C31.1338 37.4646 32.6627 35.9357 32.6627 34.0498C32.6627 30.2779 29.6057 27.2202 25.8339 27.2202C23.8058 27.2202 21.6437 27.2202 19.8313 27.2202ZM37.4381 15.8934C37.4381 18.0936 35.6508 19.8773 33.4461 19.8773C31.2414 19.8773 29.4541 18.0936 29.4541 15.8934C29.4541 13.6931 31.2414 11.9094 33.4461 11.9094C35.6508 11.9094 37.4381 13.6931 37.4381 15.8934Z" stroke="#F2F2F2" stroke-width="2.62498" stroke-linecap="round"/>
</svg>
