<svg width="24" height="24" viewBox="0 0 24 24" fill="none" xmlns="http://www.w3.org/2000/svg">
<path fill-rule="evenodd" clip-rule="evenodd" d="M17.291 7.56203V7.06539C17.2911 6.72754 17.2154 6.39397 17.0694 6.08928C16.9235 5.78459 16.711 5.51656 16.4476 5.30493C16.1842 5.09331 15.8767 4.94349 15.5478 4.86654C15.2188 4.78958 14.8767 4.78744 14.5468 4.86029C14.4536 4.33872 14.1799 3.86655 13.7736 3.52646C13.3674 3.18636 12.8544 3 12.3246 3C11.7947 3 11.2818 3.18636 10.8755 3.52646C10.4692 3.86655 10.1955 4.33872 10.1023 4.86029C9.77241 4.78744 9.43036 4.78958 9.10139 4.86654C8.77242 4.94349 8.46492 5.09331 8.20156 5.30493C7.9382 5.51656 7.7257 5.78459 7.57972 6.08928C7.43375 6.39397 7.35802 6.72754 7.35813 7.06539V11.546C7.11674 11.3415 6.85323 11.1646 6.57253 11.0187C5.65148 10.5509 4.75751 10.6232 3.8157 11.0078C3.05718 11.3194 2.81608 12.189 3.14116 12.8391L5.70746 17.9717C6.30737 19.1714 7.22944 20.1804 8.3704 20.8856C9.51136 21.5909 10.8261 21.9645 12.1675 21.9647H12.7761C14.692 21.9647 16.5294 21.2036 17.8842 19.8489C19.2389 18.4941 20 16.6567 20 14.7408V9.77436C20.0001 9.43957 19.9257 9.10895 19.7822 8.80646C19.6387 8.50397 19.4298 8.23718 19.1705 8.02541C18.9111 7.81364 18.608 7.6622 18.2829 7.58206C17.9579 7.50192 17.6191 7.49507 17.291 7.56203ZM10.0671 7.06539C10.0671 6.94564 10.0195 6.8308 9.93486 6.74613C9.85019 6.66146 9.73535 6.61389 9.61561 6.61389C9.49586 6.61389 9.38102 6.66146 9.29635 6.74613C9.21168 6.8308 9.16411 6.94564 9.16411 7.06539V13.8378C9.16396 14.0248 9.1058 14.2071 8.99764 14.3595C8.88948 14.512 8.73666 14.6272 8.56028 14.6891C8.38389 14.751 8.19262 14.7567 8.01288 14.7053C7.83314 14.6539 7.67377 14.548 7.55679 14.4022C6.72152 13.3583 6.18695 12.849 5.75532 12.6287C5.52504 12.5035 5.25716 12.4659 5.00132 12.5231L7.32201 17.1644C7.77204 18.0642 8.46369 18.8209 9.31949 19.3497C10.1753 19.8786 11.1614 20.1587 12.1675 20.1588H12.7761C14.213 20.1588 15.5911 19.5879 16.6071 18.5719C17.6232 17.5558 18.194 16.1777 18.194 14.7408V9.77436C18.194 9.65462 18.1465 9.53978 18.0618 9.4551C17.9771 9.37043 17.8623 9.32286 17.7425 9.32286C17.6228 9.32286 17.5079 9.37043 17.4233 9.4551C17.3386 9.53978 17.291 9.65462 17.291 9.77436V12.0318C17.291 12.2713 17.1959 12.501 17.0265 12.6703C16.8572 12.8397 16.6275 12.9348 16.388 12.9348C16.1485 12.9348 15.9189 12.8397 15.7495 12.6703C15.5802 12.501 15.485 12.2713 15.485 12.0318V7.06539C15.485 6.94564 15.4375 6.8308 15.3528 6.74613C15.2681 6.66146 15.1533 6.61389 15.0336 6.61389C14.9138 6.61389 14.799 6.66146 14.7143 6.74613C14.6296 6.8308 14.5821 6.94564 14.5821 7.06539V11.1288C14.5821 11.3683 14.4869 11.598 14.3176 11.7674C14.1482 11.9367 13.9186 12.0318 13.6791 12.0318C13.4396 12.0318 13.2099 11.9367 13.0406 11.7674C12.8712 11.598 12.7761 11.3683 12.7761 11.1288V5.25941C12.7761 5.13966 12.7285 5.02482 12.6438 4.94015C12.5592 4.85548 12.4443 4.80791 12.3246 4.80791C12.2048 4.80791 12.09 4.85548 12.0053 4.94015C11.9207 5.02482 11.8731 5.13966 11.8731 5.25941V12.0318C11.8731 12.2713 11.7779 12.501 11.6086 12.6703C11.4393 12.8397 11.2096 12.9348 10.9701 12.9348C10.7306 12.9348 10.5009 12.8397 10.3316 12.6703C10.1622 12.501 10.0671 12.2713 10.0671 12.0318V7.06539Z" fill="white"/>
</svg>
